<svg width="1653" height="1582" viewBox="0 0 1653 1582" fill="none" xmlns="http://www.w3.org/2000/svg">
<path d="M9.22846 57.8734C4.38548 27.5021 27.8497 0 58.6047 0H1278.53C1303.1 0 1324.03 17.8583 1327.9 42.1265L1564.22 1524.13C1569.06 1554.5 1545.6 1582 1514.84 1582H294.924C270.349 1582 249.417 1564.14 245.547 1539.87L9.22846 57.8734Z" fill="url(#paint0_linear)"/>
<path d="M1464.01 990.535C1432.34 990.535 1406.66 965.034 1406.66 933.579C1406.66 902.158 1432.34 876.657 1464.01 876.657C1495.65 876.657 1521.32 902.158 1521.32 933.579C1521.32 965.034 1495.65 990.535 1464.01 990.535ZM1615.01 966.455V900.737H1589.92C1586.91 889.245 1582.32 878.41 1576.43 868.432L1594.17 850.783L1547.38 804.306L1529.6 821.928C1519.55 816.082 1508.65 811.522 1497.08 808.526V783.608H1430.9V808.526C1419.33 811.522 1408.42 816.082 1398.38 821.928L1380.61 804.306L1333.81 850.783L1351.55 868.432C1345.67 878.41 1341.1 889.245 1338.06 900.737H1312.97V966.455H1338.06C1341.1 977.947 1345.67 988.782 1351.55 998.76L1333.81 1016.41L1380.61 1062.89L1398.38 1045.26C1408.42 1051.11 1419.33 1055.64 1430.9 1058.67V1083.58H1497.08V1058.67C1508.65 1055.64 1519.55 1051.11 1529.6 1045.26L1547.38 1062.89L1594.17 1016.41L1576.43 998.76C1582.32 988.782 1586.91 977.947 1589.92 966.455H1615.01Z" fill="#8B30D2"/>
<path d="M1355.26 1225.68C1332.99 1234.14 1308.02 1223.12 1299.48 1201.05C1290.94 1179.01 1302.07 1154.26 1324.33 1145.79C1346.57 1137.34 1371.55 1148.36 1380.08 1170.41C1388.62 1192.47 1377.5 1217.22 1355.26 1225.68ZM1454.87 1168.43L1437.02 1122.32L1419.38 1129.03C1414.14 1121.77 1407.97 1115.4 1401.13 1109.98L1408.81 1092.85L1363.29 1072.76L1355.58 1089.87C1346.93 1088.46 1338.02 1088.17 1329.08 1089.16L1322.31 1071.68L1275.79 1089.37L1282.56 1106.85C1275.24 1112.04 1268.81 1118.16 1263.33 1124.94L1246.06 1117.33L1225.79 1162.44L1243.05 1170.08C1241.62 1178.65 1241.35 1187.47 1242.34 1196.35L1224.7 1203.05L1242.54 1249.16L1260.18 1242.45C1265.44 1249.7 1271.59 1256.08 1278.44 1261.5L1270.76 1278.63L1316.27 1298.72L1323.98 1281.61C1332.63 1283.02 1341.53 1283.29 1350.48 1282.32L1357.25 1299.8L1403.77 1282.11L1397 1264.63C1404.31 1259.42 1410.75 1253.32 1416.23 1246.54L1433.5 1254.15L1453.78 1209.04L1436.51 1201.4C1437.94 1192.83 1438.23 1184 1437.23 1175.13L1454.87 1168.43Z" stroke="#8B30D2" stroke-width="1.33333" stroke-miterlimit="10"/>
<path d="M1235.2 1043.54C1220.09 1049.34 1203.14 1041.78 1197.35 1026.68C1191.56 1011.58 1199.11 994.64 1214.22 988.843C1229.31 983.053 1246.25 990.602 1252.04 1005.7C1257.84 1020.8 1250.29 1037.75 1235.2 1043.54V1043.54ZM1302.79 1004.34L1290.68 972.776L1278.71 977.368C1275.16 972.4 1270.97 968.038 1266.32 964.32L1271.54 952.594L1240.65 938.837L1235.42 950.554C1229.55 949.585 1223.51 949.391 1217.44 950.07L1212.85 938.102L1181.28 950.208L1185.87 962.18C1180.9 965.734 1176.54 969.923 1172.82 974.566L1161.1 969.357L1147.34 1000.24L1159.06 1005.47C1158.09 1011.34 1157.91 1017.38 1158.57 1023.46L1146.61 1028.05L1158.71 1059.61L1170.68 1055.02C1174.25 1059.99 1178.43 1064.35 1183.07 1068.07L1177.86 1079.79L1208.75 1093.55L1213.97 1081.84C1219.85 1082.8 1225.89 1082.99 1231.96 1082.32L1236.55 1094.29L1268.12 1082.18L1263.53 1070.21C1268.49 1066.64 1272.86 1062.47 1276.57 1057.82L1288.29 1063.03L1302.05 1032.15L1290.34 1026.92C1291.31 1021.05 1291.5 1015 1290.82 1008.93L1302.79 1004.34Z" stroke="#8B30D2" stroke-width="1.33333" stroke-miterlimit="10"/>
<path d="M1292.52 456.187C1292.52 503.57 1270.37 545.806 1235.91 573.099C1210.55 593.233 1178.46 605.178 1143.52 605.178C1108.67 605.178 1076.59 593.233 1051.13 573.099C1016.63 545.806 994.529 503.57 994.529 456.187C994.529 373.903 1061.24 307.191 1143.52 307.191C1225.8 307.191 1292.52 373.903 1292.52 456.187Z" fill="#9E28FC"/>
<path d="M1292.52 456.187C1292.52 503.57 1270.37 545.806 1235.91 573.099C1210.55 593.233 1178.46 605.178 1143.52 605.178C1108.67 605.178 1076.59 593.233 1051.13 573.099C1016.63 545.806 994.529 503.57 994.529 456.187C994.529 373.903 1061.24 307.191 1143.52 307.191C1225.8 307.191 1292.52 373.903 1292.52 456.187V456.187Z" stroke="#9E28FC" stroke-width="1.33333" stroke-miterlimit="10"/>
<path d="M1143.52 358.57C1170.2 358.57 1191.82 380.191 1191.82 406.862C1191.82 433.532 1170.2 455.158 1143.52 455.158C1116.85 455.158 1095.23 433.532 1095.23 406.862C1095.23 380.191 1116.85 358.57 1143.52 358.57Z" fill="white"/>
<path d="M1237.03 552.557C1211.64 572.686 1179.53 584.629 1144.55 584.629C1109.67 584.629 1077.56 572.686 1052.07 552.557C1061.61 510.641 1070.39 474.454 1079.52 465.281C1092.42 452.4 1126.68 444.884 1144.51 444.884C1162.33 444.884 1198.2 454.009 1204.83 460.63C1218.35 474.095 1230 511.269 1237.03 552.557Z" fill="white"/>
<path d="M930.822 819.637V746.25C930.822 726.219 947.076 709.988 967.134 709.988H1198.66C1218.72 709.988 1234.97 726.219 1234.97 746.25V819.637C1234.97 839.667 1218.72 855.898 1198.66 855.898H967.177C947.119 855.942 930.822 839.667 930.822 819.637Z" fill="#9E28FC"/>
<path d="M1028.02 816.852L916.436 925.771L1097.28 834.193" fill="#9E28FC"/>
<path d="M959.594 745.138V744.709C959.594 741.424 961.976 738.758 964.912 738.758H1077.58C1080.52 738.758 1082.9 741.424 1082.9 744.709V745.138C1082.9 748.423 1080.52 751.089 1077.58 751.089H964.912C961.976 751.089 959.594 748.423 959.594 745.138Z" fill="white"/>
<path d="M1087.01 745.138V744.709C1087.01 741.424 1089.43 738.758 1092.42 738.758H1192.57C1195.56 738.758 1197.98 741.424 1197.98 744.709V745.138C1197.98 748.423 1195.56 751.089 1192.57 751.089H1092.42C1089.43 751.089 1087.01 748.423 1087.01 745.138Z" fill="white"/>
<path d="M1045.91 769.799V769.371C1045.91 766.086 1048.29 763.42 1051.23 763.42H1192.66C1195.6 763.42 1197.98 766.086 1197.98 769.371V769.799C1197.98 773.084 1195.6 775.75 1192.66 775.75H1051.23C1048.29 775.75 1045.91 773.084 1045.91 769.799Z" fill="white"/>
<path d="M959.594 769.799V769.371C959.594 766.086 961.918 763.42 964.782 763.42H1026.33C1029.2 763.42 1031.52 766.086 1031.52 769.371V769.799C1031.52 773.084 1029.2 775.75 1026.33 775.75H964.782C961.918 775.75 959.594 773.084 959.594 769.799Z" fill="white"/>
<path d="M1066.46 793.397V793.04C1066.46 790.303 1068.83 788.081 1071.75 788.081H1192.69C1195.61 788.081 1197.98 790.303 1197.98 793.04V793.397C1197.98 796.135 1195.61 798.356 1192.69 798.356H1071.75C1068.83 798.356 1066.46 796.135 1066.46 793.397Z" fill="white"/>
<path d="M959.594 793.397V793.04C959.594 790.303 961.973 788.081 964.905 788.081H1048.82C1051.75 788.081 1054.13 790.303 1054.13 793.04V793.397C1054.13 796.135 1051.75 798.356 1048.82 798.356H964.905C961.973 798.356 959.594 796.135 959.594 793.397Z" fill="white"/>
<path d="M959.594 818.057V817.7C959.594 814.963 961.935 812.741 964.82 812.741H995.469C998.354 812.741 1000.7 814.963 1000.7 817.7V818.057C1000.7 820.795 998.354 823.017 995.469 823.017H964.82C961.935 823.017 959.594 820.795 959.594 818.057Z" fill="white"/>
<path d="M1013.03 818.057V817.7C1013.03 814.963 1015.41 812.741 1018.36 812.741H1192.65C1195.59 812.741 1197.98 814.963 1197.98 817.7V818.057C1197.98 820.795 1195.59 823.017 1192.65 823.017H1018.36C1015.41 823.017 1013.03 820.795 1013.03 818.057Z" fill="white"/>
<path d="M180.403 522.029C254.134 494.049 336.587 531.135 364.567 604.862C392.548 678.594 355.462 761.043 281.735 789.028C208.005 817.008 125.552 779.922 97.5704 706.195C69.5876 632.463 106.673 550.01 180.403 522.029Z" fill="#9E28FC"/>
<path d="M228.747 742.127C220.644 759.006 200.39 766.119 183.513 758.018C166.635 749.912 159.522 729.662 167.625 712.784C175.728 695.905 195.98 688.792 212.859 696.893C229.738 704.999 236.851 725.248 228.747 742.127Z" fill="white"/>
<path d="M180.395 739.22L178.664 716.614L197.485 703.823L218.035 713.634L219.766 736.24L200.946 749.035L180.395 739.22Z" fill="#9E28FC"/>
<path d="M298.42 601.801C289.822 619.192 268.346 626.521 250.444 618.169C232.542 609.822 224.998 588.954 233.59 571.568C242.187 554.177 263.668 546.848 281.566 555.195C299.468 563.547 307.012 584.411 298.42 601.801Z" fill="white"/>
<path d="M248.535 597.765L249.698 570.022L270.247 551.747L289.637 561.221L288.474 588.964L267.921 607.234L248.535 597.765Z" fill="#9E28FC"/>
<path d="M223.218 709.988L197.158 697.375L216.415 652.591C217.637 649.75 218.968 646.961 220.404 644.223L243.026 601.069L269.086 613.682L250.513 657.781C249.078 661.196 247.487 664.537 245.742 667.797L223.218 709.988Z" fill="white"/>
<path d="M332.795 733.246C337.858 730.829 419.108 734.649 419.108 734.649L360.541 679.162L332.795 733.246Z" fill="#9E28FC"/>
<path d="M943.955 1308.02C935.72 1179.72 991.273 1046.94 1084.84 970.983C1087.74 1099.92 1032.74 1230.42 943.955 1308.02Z" fill="#8B30D2"/>
<path d="M1070.57 1007.97C1030.85 1081.84 996.5 1159.13 967.957 1238.87C933.267 1335.68 905.97 1438.53 846.562 1519.69" stroke="#6C0EB7" stroke-width="1.33333" stroke-miterlimit="10" stroke-linecap="round"/>
<path d="M914.381 1388.17C962.054 1281.73 1056.67 1201.31 1160.99 1178.55C1116.58 1292.62 1016.68 1379.63 914.381 1388.17Z" fill="#8B30D2"/>
<path d="M1136.33 1203.21C1064.25 1265.95 990.95 1326.93 916.436 1386.11" stroke="#6C0EB7" stroke-width="1.33333" stroke-miterlimit="10" stroke-linecap="round"/>
<path d="M885.611 1481.99C949.545 1387.13 1067.5 1337.63 1165.1 1364.69C1093.32 1458.35 975.11 1507.99 885.611 1481.99Z" fill="#8B30D2"/>
<path d="M1140.44 1371.72C1057.36 1424.45 967.734 1463.39 875.334 1486.81" stroke="#6C0EB7" stroke-width="1.33333" stroke-miterlimit="10" stroke-linecap="round"/>
<path d="M920.396 1357.34C941.069 1249.97 910.059 1130.3 841.016 1051.13C812.71 1156.64 839.708 1280.28 920.396 1357.34Z" fill="#8B30D2"/>
<path d="M848.619 1077.85C862.356 1177.28 886.792 1270.41 924.657 1361.45" stroke="#6C0EB7" stroke-width="1.33333" stroke-miterlimit="10" stroke-linecap="round"/>
<path d="M885.61 1447.76C876.916 1338.21 820.364 1235.33 737.645 1178.55C742.422 1236.57 757.959 1292.5 782.62 1343.34C810.982 1401.75 852.643 1438.79 885.61 1447.76Z" fill="#8B30D2"/>
<path d="M747.92 1201.15C780.924 1292.25 828.423 1376.7 887.665 1449.82" stroke="#6C0EB7" stroke-width="1.33333" stroke-miterlimit="10" stroke-linecap="round"/>
<path d="M1416.03 1521.74C1454.79 1419.87 1447.06 1304.39 1395.76 1219.65C1375.4 1273.69 1365.7 1330.22 1366.55 1385.94C1367.48 1449.92 1389.71 1500.22 1416.03 1521.74Z" fill="#8B30D2"/>
<path d="M318.453 1316.24C301.688 1215.11 336.351 1107.93 409.565 1034.69C417.991 1139.31 385.901 1245.9 318.453 1316.24Z" fill="#8B30D2"/>
<path d="M392.393 1075.79C383.974 1160.65 357.94 1243.59 316.355 1318.29" stroke="#6C0EB7" stroke-width="1.33333" stroke-miterlimit="10" stroke-linecap="round"/>
<path d="M818.556 1328.57C818.556 1328.57 827.949 1414.89 838.456 1421.81C857.241 1434.24 1074.68 1462.97 1074.68 1462.97L1067.56 1519.7C1067.56 1519.7 769.751 1546.54 757.099 1531.61C735.141 1505.72 696.543 1380.82 696.543 1380.82L818.556 1328.57Z" fill="#CE745A"/>
<path d="M673.938 1104.94L698.344 1047.02C698.344 1047.02 764.559 1077.76 786.398 1115.73C809.761 1156.32 838.344 1372.11 838.344 1372.11C838.344 1372.11 721.445 1398.73 699.954 1387.42C678.462 1376.11 673.938 1104.94 673.938 1104.94Z" fill="#6C0EB7"/>
<path d="M490.703 835.535C473.747 829.335 455.798 823.91 437.633 825.288C419.469 826.666 400.916 836.266 394.746 852.196C390.345 863.476 392.373 876.779 385.426 886.939C378.782 896.669 365.579 900.716 353.239 901.534C340.856 902.395 328.387 900.759 316.09 902.352C278.122 907.389 251.026 948.547 263.495 982.257C268.457 995.689 278.639 1008.52 276.309 1022.51C273.85 1037.49 258.102 1047.35 251.63 1061.26C243.044 1079.77 253.313 1102.2 270.269 1114.82C287.225 1127.39 309.273 1132.17 330.674 1135.35C360.143 1139.74 390.561 1141.81 419.684 1135.61C448.808 1129.41 476.637 1114.08 491.695 1090.15C498.383 1079.56 502.439 1067.59 510.205 1057.64C526.256 1037.11 554.689 1029.14 577.082 1014.59C601.546 998.617 619.495 967.533 605.084 943.209C591.191 919.831 555.034 914.622 540.537 891.589C534.54 882.074 533.116 870.751 529.233 860.376C525.263 849.957 515.771 844.705 490.703 835.535Z" fill="#16233A"/>
<path d="M587.738 1122.62C592.022 1127.49 597.085 1132.83 604.095 1133.3C611.495 1133.81 617.683 1128.64 622.443 1123.65C647.023 1097.99 663.25 1066.48 669.828 1033.98C663.726 1030.57 657.841 1027.28 652.518 1024.21C647.585 1021.3 643.864 1017.25 641.743 1012.51C640.272 1009 639.753 1005.33 640.142 1001.49C643.604 969.381 646.676 951.49 658.101 918.912C603.836 906.828 552.643 892.481 523.217 868.229C519.625 883.173 515.384 912.421 506.34 941.413C496.69 972.113 481.631 1002.47 456.1 1015.54C506.21 1044.74 550.912 1081.04 587.738 1122.62Z" fill="#F8A58D"/>
<path d="M639.745 1000.18C639.36 1003.99 639.873 1007.67 641.327 1011.09C609.586 1049.14 538.619 999.423 507.477 940.696C516.417 911.988 520.609 883.026 524.16 868.228C553.206 892.243 603.854 906.492 657.497 918.415C646.204 950.674 643.167 968.347 639.745 1000.18Z" fill="#CE745A"/>
<path d="M729.472 1468.2C722.426 1514.95 772.777 1556.28 774.023 1581.25C667.091 1581.25 462.266 1581.25 329.024 1581.25C323.826 1552.41 380.149 1487.53 380.149 1423.47C380.149 1414.99 379.805 1405.69 379.118 1395.7C377.314 1367.12 373.103 1333.11 368.42 1298.24C355.704 1204.69 338.777 1104.64 351.279 1083.89C375.767 1043.46 433.035 1016 461.433 1004.2C471.185 1000.15 477.544 997.957 478.016 997.699C513.631 1058.57 586.108 1110.49 613.475 1108.17C621.079 1107.56 643.634 1099.69 658.542 1024.48C664.342 1027.79 670.141 1030.85 675.898 1033.82C704.21 1048.58 730.761 1060.77 738.408 1079.75C758.6 1129.74 778.405 1255.74 774.023 1300.57C769.598 1345.77 751.468 1380.29 738.751 1425.67C735.787 1436.3 733.081 1447.58 730.889 1459.72C730.331 1462.43 729.901 1465.27 729.472 1468.2Z" fill="#851DD8"/>
<path d="M770.586 1581.3C664 1581.3 461.238 1581.3 329.023 1581.3C323.842 1552.61 379.983 1488.06 379.983 1424.32C379.983 1415.89 379.64 1406.63 378.955 1396.7C377.156 1368.26 372.96 1334.42 368.292 1299.72C388.462 1321.01 417.881 1231.06 430.899 1257.41C501.343 1399.61 556.884 1437 653.407 1437C682.183 1437 708.734 1433.02 737.425 1426.51C734.47 1437.09 731.772 1448.31 729.588 1460.39C729.075 1463.13 728.603 1465.96 728.175 1468.87C721.152 1515.3 769.344 1556.42 770.586 1581.3Z" fill="#6C0EB7"/>
<path d="M675.992 1034.16C671.367 1067.93 657.664 1113.43 617.81 1125.42C563.951 1141.63 486.015 1040.46 460.209 1004.26C470.021 1000.18 476.419 997.96 476.894 997.699C512.728 1059.15 585.65 1111.56 613.185 1109.21C620.836 1108.61 643.53 1100.65 658.529 1024.73C664.364 1028.03 670.2 1031.12 675.992 1034.16Z" fill="#851DD8"/>
<path d="M698.984 1543.3V1581.34H1380.88V1543.3L698.984 1543.3Z" fill="#345A73"/>
<path d="M1652.16 1209.07L1637.32 1194.05L1151.8 1190.88L908.217 1542.36L920.946 1552.57L1652.16 1209.07Z" fill="#345A73"/>
<path d="M1162.28 1203.21L922.602 1552.35L1380.42 1554.63L1652.15 1208.41L1162.28 1203.21Z" fill="#1A2C4C"/>
<path d="M1278.13 1373.78C1307.64 1373.78 1331.56 1385.28 1331.56 1399.47C1331.56 1413.66 1307.64 1425.16 1278.13 1425.16C1248.62 1425.16 1224.7 1413.66 1224.7 1399.47C1224.7 1385.28 1248.62 1373.78 1278.13 1373.78Z" fill="#40718F"/>
<path d="M708.688 857.15C716.094 816.6 743.341 787.765 769.545 792.751C795.753 797.733 810.995 834.646 803.593 875.197C796.187 915.747 768.939 944.582 742.735 939.596C716.527 934.614 701.286 897.701 708.688 857.15Z" fill="#1A2C4C"/>
<path d="M803.669 748.726C798.744 784.102 783.161 823.094 760.445 866.174C752.463 830.884 747.367 787.89 740.319 744.896C733.143 701.816 724.015 658.736 708.177 623.531C704.61 615.742 700.747 608.296 696.543 601.41C705.927 600.507 715.438 601.41 724.482 603.95C738.621 607.78 751.868 615.182 762.695 625.081C780.698 641.306 792.757 663.427 799.933 686.753C805.835 706.119 806.896 726.691 803.669 748.726Z" fill="#1A2C4C"/>
<path d="M776.426 784.991C776.17 791.916 775.7 798.969 775.059 805.98C765.315 919.686 717.581 997.698 644.548 997.698C541.43 997.698 474.594 882.026 474.594 768.704C474.594 656.922 543.054 576.003 623.181 585.364C669.377 590.665 703.137 606.011 727.111 628.495C742.965 643.457 754.418 661.539 762.238 682.1C771.17 705.14 775.486 731.216 776.383 759.3C776.383 759.386 776.469 759.471 776.469 759.557C776.811 767.849 776.725 776.313 776.426 784.991Z" fill="#F8A58D"/>
<path d="M776.418 785.231C773.317 774.178 768.708 763.384 762.42 753.707C701.131 785.704 628.085 798.048 558.828 786.35C545.649 797.317 532.771 808.111 519.807 818.906C520.065 766.867 520.797 731.644 541.126 706.442C560.206 682.788 592.035 673.885 622.184 670.014C656.123 665.585 690.622 665.757 724.475 670.659C737.439 672.466 750.877 675.261 762.162 681.798C771.163 704.979 775.513 731.214 776.418 759.47C776.418 759.556 776.504 759.642 776.504 759.728C776.805 767.985 776.719 776.501 776.418 785.231Z" fill="#CE745A"/>
<path d="M793.133 714.204C778.903 726.253 761.061 736.237 741.027 744.328C684.02 767.351 609.946 774.968 552.208 772.171C523.834 834.571 512.355 856.948 505.089 911.387C477.36 885.351 454.789 837.669 448.082 800.186C441.462 762.832 442.107 723.628 452.511 686.92C468.89 629.039 510.205 598.054 538.838 582.992C545.974 579.076 552.423 576.365 557.41 574.385C593.996 560.227 635.225 561.518 672.756 573.008C693.22 579.377 710.46 590.136 724.948 603.39C754.226 629.856 772.325 665.704 784.019 692.557C787.716 700.777 790.682 708.222 793.133 714.204Z" fill="#1A2C4C"/>
<path d="M803.652 749.035C801.295 736.452 797.782 724.259 792.812 712.498C790.027 705.839 786.599 699.396 782.614 693.17C769.632 672.588 750.736 655.638 727.899 648.157C721.386 638.947 714.531 630.645 707.333 623.295C681.41 596.702 650.989 581.482 618.769 576.164C591.947 571.796 564.054 574.261 538.303 583.082C545.415 579.147 551.842 576.423 556.812 574.434C593.275 560.208 634.365 561.505 671.77 573.05C692.165 579.45 709.346 590.26 723.786 603.577C738.054 607.426 751.422 614.863 762.348 624.808C780.515 641.109 792.683 663.334 799.924 686.77C805.837 706.228 806.908 726.897 803.652 749.035Z" fill="#2A5070"/>
<path d="M585.568 818.906C604.394 808.918 623.937 804.413 651.331 813.697" stroke="#1A2C4C" stroke-width="2.66667" stroke-miterlimit="10" stroke-linecap="round"/>
<path d="M715.039 818.906C731.46 805.877 755.79 804.551 768.471 818.906" stroke="#1A2C4C" stroke-width="2.66667" stroke-miterlimit="10" stroke-linecap="round"/>
<path d="M697.81 880.559C699.47 889.35 698.576 908.803 694.488 917.551" stroke="#CD3249" stroke-width="2.66667" stroke-miterlimit="10" stroke-linecap="round"/>
<path d="M631.808 862.063C636.915 862.063 641.056 867.126 641.056 873.366C641.056 879.61 636.915 884.669 631.808 884.669C626.702 884.669 622.561 879.61 622.561 873.366C622.561 867.126 626.702 862.063 631.808 862.063Z" fill="#25293B"/>
<path d="M734.562 855.9C738.534 855.9 741.755 861.423 741.755 868.23C741.755 875.042 738.534 880.561 734.562 880.561C730.59 880.561 727.369 875.042 727.369 868.23C727.369 861.423 730.59 855.9 734.562 855.9Z" fill="#25293B"/>
<path d="M686.268 934.273C686.268 934.273 684.733 937.244 681.792 941.276C677.189 947.43 669.345 955.919 658.646 959.229H658.604C654.085 960.672 649.183 961.181 643.727 960.205C627.699 957.362 623.479 942.634 622.712 931.302C622.542 929.095 622.542 927.058 622.584 925.191C622.669 920.607 623.181 917.551 623.181 917.551C648.714 931.557 686.268 934.273 686.268 934.273Z" fill="#CD3249"/>
<path d="M686.268 933.484C686.268 933.484 684.733 936.314 681.791 940.156C668.742 939.994 642.048 933.645 622.561 924.83C622.646 920.462 623.158 917.55 623.158 917.55C648.7 930.896 686.268 933.484 686.268 933.484Z" fill="white"/>
<path d="M657.497 959.261C653.099 960.673 648.327 961.171 643.016 960.216C627.415 957.434 623.307 943.024 622.561 931.937C630.112 932.85 637.415 935.757 643.473 940.367C649.821 945.225 654.675 951.828 657.497 959.261Z" fill="#EA509C"/>
<path d="M503.979 798.356C503.979 798.356 503.075 744.906 525.425 691.798C553.46 625.145 610.606 596.641 666.029 594.712C732.822 592.354 774.637 636.975 774.637 636.975C774.637 636.975 752.889 598.784 709.998 587.811C681.834 580.61 639.329 579.452 605.223 593.254C570.082 607.442 526.286 646.834 510.439 688.454C494.634 730.075 486.926 794.885 486.926 794.885L503.979 798.356Z" fill="#40718F"/>
<path d="M487.154 782.101C515.178 779.147 541.472 811.633 545.89 854.663C550.304 897.689 531.163 934.96 503.139 937.915C475.115 940.865 448.817 908.378 444.403 865.352C439.989 822.327 459.126 785.051 487.154 782.101Z" fill="#1A2C4C"/>
<path d="M473.122 808.848C491.226 806.096 509.778 829.99 514.561 862.215C519.349 894.445 508.553 922.8 490.453 925.556C472.349 928.307 453.798 904.414 449.014 872.184C444.226 839.958 455.022 811.599 473.122 808.848Z" fill="#40718F"/>
<path d="M668.8 966.873C684.124 966.873 696.544 974.236 696.544 983.313C696.544 992.395 684.124 999.754 668.8 999.754C653.481 999.754 641.057 992.395 641.057 983.313C641.057 974.236 653.481 966.873 668.8 966.873Z" fill="#345A73"/>
<path d="M528.027 925.772C528.027 925.772 569.295 977.951 641.057 983.314" stroke="#345A73" stroke-width="2.66667" stroke-miterlimit="10" stroke-linecap="round"/>
<path d="M698.6 1441.55L695.928 1509.77C695.928 1509.77 446.718 1583.71 405.564 1560.33C385.483 1548.89 366.737 1486.01 352.732 1424.61C338.08 1360.1 328.686 1297.3 328.686 1297.3L474.772 1268.97C474.772 1268.97 474.858 1357.16 479.814 1408.14C481.581 1427.13 484.124 1440.95 487.528 1443.21C500.413 1451.62 698.6 1441.55 698.6 1441.55Z" fill="#F8A58D"/>
<path d="M478.706 1407.3C452.355 1415.91 401.493 1429.22 352.555 1423.96C338.011 1358.87 328.686 1295.5 328.686 1295.5L473.701 1266.91C473.701 1266.87 473.787 1355.86 478.706 1407.3Z" fill="#CE745A"/>
<path d="M690.74 1442.64C727.617 1434.75 790.052 1415.8 815.952 1409.28C834.348 1404.65 882.246 1429.44 894.896 1452.81C900.428 1463.02 905.659 1520.83 886.492 1514.87C876.886 1511.87 878.473 1487.08 875.471 1476.96C873.027 1468.72 865.223 1460.74 853.345 1453.88C861.278 1473.65 860.977 1490.89 860.12 1512.25C859.948 1516.97 859.648 1521.9 857.375 1525.98C855.06 1530.05 850.086 1532.97 845.798 1531.17C841.424 1529.37 839.923 1523.92 838.937 1519.16C835.549 1502.69 832.118 1486.22 830.746 1467.61C831.089 1485.92 830.703 1504.28 829.546 1522.55C828.688 1536.53 821.741 1544.2 813.208 1541.76C809.392 1540.69 807.848 1537.17 806.218 1532.54C803.645 1541.5 797.213 1551.41 788.894 1547.64C783.834 1545.36 780.704 1527.09 781.605 1508.31C765.653 1518.21 747.643 1522.42 726.888 1523.36C708.278 1524.22 689.239 1520.74 678.047 1508.09C679.162 1488.32 685.68 1459.07 690.74 1442.64Z" fill="#F8A58D"/>
<path d="M805.02 1529.96C806.216 1515.48 804.979 1500.79 801.352 1486.81" stroke="#CD3249" stroke-width="1.33333" stroke-miterlimit="10" stroke-linecap="round"/>
<path d="M458.931 1123.35C448.257 1093.57 409.162 1032.64 409.162 1032.64C409.162 1032.64 349.501 1057.22 328.327 1098.94C292.487 1169.59 310.711 1372.42 310.711 1372.42C359.004 1392.44 455.937 1392.74 497.2 1386.98C497.2 1386.98 480.322 1182.87 458.931 1123.35Z" fill="#851DD8"/>
<path d="M464.318 1135.39C479.972 1212.65 488.363 1284.7 491.034 1355.28" stroke="#6C0EB7" stroke-width="1.33333" stroke-miterlimit="10" stroke-linecap="round"/>
<defs>
<linearGradient id="paint0_linear" x1="786.724" y1="0" x2="786.724" y2="1582" gradientUnits="userSpaceOnUse">
<stop stop-color="#CEB0FF"/>
<stop offset="1" stop-color="#9B1FFC"/>
</linearGradient>
</defs>
</svg>
